<?xml version="1.0" encoding="iso-8859-1"?>
<!-- Generator: Adobe Illustrator 19.0.0, SVG Export Plug-In . SVG Version: 6.00 Build 0)  -->
<svg version="1.1" id="Layer_1" xmlns="http://www.w3.org/2000/svg" xmlns:xlink="http://www.w3.org/1999/xlink" x="0px" y="0px"
	 viewBox="0 0 512 512" style="enable-background:new 0 0 512 512;" xml:space="preserve">
<circle style="fill:#D35933;" cx="256" cy="256" r="256"/>
<g>
	<path style="fill:#B54324;" d="M478.963,381.85c5.777-10.214,10.886-20.856,15.238-31.882L272.837,130.345l-15.046,10.361
		l-18.82,1.953L478.963,381.85z"/>
	<path style="fill:#B54324;" d="M140.498,297.374l-0.674,13.977l-3.012-3.012l-1.102,26.96l21.211,21.211l-41.706,36.826
		l117.607,117.607c7.637,0.686,15.363,1.055,23.178,1.055c29.705,0,58.218-5.077,84.745-14.381L140.498,297.374z"/>
	<path style="fill:#B54324;" d="M263.389,181.215l-50.066-50.391l-32.347,12.243l-25.419-25.564l-34.883,33.626l1.321,1.321
		l-5.846,5.261l26.067,26.455l-6.506,31.275l72.083,72.083l-6.711,10.099l-58.537-58.756l-1.757,5.984l-8.988,29.222l52.579,48.987
		l-11.455,1.957l171.353,171.353c55.975-20.564,102.762-60.128,132.577-110.868L264.045,172.689L263.389,181.215z"/>
	<path style="fill:#B54324;" d="M512,256c0-8.675-0.436-17.249-1.279-25.702L396.219,117.586l-38.886,35.752l-24.136-22.609
		l-15.382,6.67l-18.818,5.303l198.623,198.042C506.923,314.218,512,285.703,512,256z"/>
</g>
<path style="fill:#FFEDB5;" d="M252.014,177.311c2.827-6.185,11.628-6.154,14.408,0.052L318.2,292.864
	c5.515,12.452,10.049,20.292,13.593,23.523c2.677,2.443,6.461,3.862,11.348,4.256v4.374h-77.545v-4.374h3.193
	c6.223,0,10.597-0.865,13.119-2.601c1.734-1.26,2.601-3.074,2.601-5.437c0-1.419-0.236-2.877-0.71-4.374
	c-0.157-0.71-1.339-3.665-3.546-8.866l-8.511-19.977h-56.617l-6.737,15.603c-2.207,5.203-3.312,9.497-3.312,12.884
	c0,4.492,1.812,7.801,5.439,9.928c2.127,1.262,7.368,2.207,15.72,2.838v4.374h-53.31v-4.374c5.751-0.865,10.48-3.25,14.186-7.152
	c3.703-3.899,8.273-11.957,13.712-24.173L252.014,177.311z M267.728,270.641L243.85,215.44l-24.586,55.201H267.728z"/>
<path style="fill:#FEE187;" d="M331.795,316.387c-3.546-3.229-8.078-11.069-13.593-23.523l-51.778-115.502
	c-2.127-4.746-7.768-5.868-11.571-3.374v66.884l12.876,29.767h-12.876v8.747h16.894l8.511,19.977
	c2.207,5.201,3.387,8.156,3.546,8.866c0.474,1.496,0.71,2.955,0.71,4.374c0,2.363-0.867,4.177-2.601,5.437
	c-2.522,1.734-6.896,2.601-13.119,2.601h-3.193v4.374h77.545v-4.374C338.256,320.248,334.472,318.829,331.795,316.387z"/>
<g>
	<path style="fill:#FFFFFF;" d="M375.408,384.026h-10.343c-4.761,0-8.62-3.858-8.62-8.62s3.858-8.62,8.62-8.62h1.724v-1.724
		c0-4.761,3.858-8.62,8.62-8.62s8.62,3.858,8.62,8.62v10.343C384.028,380.166,380.168,384.026,375.408,384.026z"/>
	<path style="fill:#FFFFFF;" d="M326.89,384.026h-21.813c-4.761,0-8.62-3.858-8.62-8.62s3.858-8.62,8.62-8.62h21.813
		c4.761,0,8.62,3.858,8.62,8.62S331.652,384.026,326.89,384.026z M266.905,384.026h-21.811c-4.761,0-8.62-3.858-8.62-8.62
		s3.858-8.62,8.62-8.62h21.811c4.761,0,8.62,3.858,8.62,8.62S271.667,384.026,266.905,384.026z M206.922,384.026H185.11
		c-4.761,0-8.62-3.858-8.62-8.62s3.858-8.62,8.62-8.62h21.813c4.761,0,8.62,3.858,8.62,8.62S211.684,384.026,206.922,384.026z"/>
	<path style="fill:#FFFFFF;" d="M146.937,384.026h-10.343c-4.761,0-8.62-3.858-8.62-8.62v-10.343c0-4.761,3.858-8.62,8.62-8.62
		s8.62,3.858,8.62,8.62v1.724h1.724c4.761,0,8.62,3.858,8.62,8.62S151.699,384.026,146.937,384.026z"/>
	<path style="fill:#FFFFFF;" d="M136.594,335.51c-4.761,0-8.62-3.858-8.62-8.62v-21.813c0-4.761,3.858-8.62,8.62-8.62
		s8.62,3.858,8.62,8.62v21.813C145.213,331.652,141.355,335.51,136.594,335.51z M136.594,275.525c-4.761,0-8.62-3.858-8.62-8.62
		v-21.811c0-4.761,3.858-8.62,8.62-8.62s8.62,3.858,8.62,8.62v21.811C145.213,271.667,141.355,275.525,136.594,275.525z
		 M136.594,215.542c-4.761,0-8.62-3.858-8.62-8.62V185.11c0-4.761,3.858-8.62,8.62-8.62s8.62,3.858,8.62,8.62v21.813
		C145.213,211.684,141.355,215.542,136.594,215.542z"/>
	<path style="fill:#FFFFFF;" d="M136.594,155.557c-4.761,0-8.62-3.858-8.62-8.62v-10.343c0-4.761,3.858-8.62,8.62-8.62h10.343
		c4.761,0,8.62,3.858,8.62,8.62s-3.858,8.62-8.62,8.62h-1.724v1.724C145.213,151.699,141.355,155.557,136.594,155.557z"/>
	<path style="fill:#FFFFFF;" d="M326.892,145.213H305.08c-4.761,0-8.62-3.858-8.62-8.62s3.858-8.62,8.62-8.62h21.813
		c4.761,0,8.62,3.858,8.62,8.62S331.654,145.213,326.892,145.213z M266.907,145.213h-21.811c-4.761,0-8.62-3.858-8.62-8.62
		s3.858-8.62,8.62-8.62h21.811c4.761,0,8.62,3.858,8.62,8.62S271.669,145.213,266.907,145.213z M206.924,145.213h-21.813
		c-4.761,0-8.62-3.858-8.62-8.62s3.858-8.62,8.62-8.62h21.813c4.761,0,8.62,3.858,8.62,8.62S211.685,145.213,206.924,145.213z"/>
	<path style="fill:#FFFFFF;" d="M375.408,155.557c-4.761,0-8.62-3.858-8.62-8.62v-1.724h-1.724c-4.761,0-8.62-3.858-8.62-8.62
		s3.858-8.62,8.62-8.62h10.343c4.761,0,8.62,3.858,8.62,8.62v10.343C384.028,151.699,380.168,155.557,375.408,155.557z"/>
	<path style="fill:#FFFFFF;" d="M375.408,335.51c-4.761,0-8.62-3.858-8.62-8.62v-21.813c0-4.761,3.858-8.62,8.62-8.62
		s8.62,3.858,8.62,8.62v21.813C384.028,331.652,380.168,335.51,375.408,335.51z M375.408,275.525c-4.761,0-8.62-3.858-8.62-8.62
		v-21.811c0-4.761,3.858-8.62,8.62-8.62s8.62,3.858,8.62,8.62v21.811C384.028,271.667,380.168,275.525,375.408,275.525z
		 M375.408,215.542c-4.761,0-8.62-3.858-8.62-8.62V185.11c0-4.761,3.858-8.62,8.62-8.62s8.62,3.858,8.62,8.62v21.813
		C384.028,211.684,380.168,215.542,375.408,215.542z"/>
</g>
<rect x="120.673" y="122.449" style="fill:#59595B;" width="30.072" height="30.072"/>
<path style="fill:#D0D1D3;" d="M150.747,159.411h-30.074c-3.808,0-6.896-3.088-6.896-6.896v-30.074c0-3.808,3.088-6.896,6.896-6.896
	h30.074c3.808,0,6.896,3.088,6.896,6.896v30.072C157.643,156.324,154.555,159.411,150.747,159.411z M127.569,145.62h16.282v-16.281
	h-16.282V145.62z"/>
<rect x="361.262" y="122.449" style="fill:#59595B;" width="30.072" height="30.072"/>
<path style="fill:#D0D1D3;" d="M391.327,159.411h-30.072c-3.808,0-6.896-3.088-6.896-6.896v-30.074c0-3.808,3.088-6.896,6.896-6.896
	h30.072c3.808,0,6.896,3.088,6.896,6.896v30.072C398.222,156.324,395.135,159.411,391.327,159.411z M368.15,145.62h16.281v-16.281
	H368.15V145.62z"/>
<rect x="120.673" y="359.486" style="fill:#59595B;" width="30.072" height="30.072"/>
<path style="fill:#D0D1D3;" d="M150.747,396.453h-30.074c-3.808,0-6.896-3.088-6.896-6.896v-30.072c0-3.808,3.088-6.896,6.896-6.896
	h30.074c3.808,0,6.896,3.088,6.896,6.896v30.072C157.643,393.366,154.555,396.453,150.747,396.453z M127.569,382.662h16.282v-16.281
	h-16.282V382.662z"/>
<rect x="361.262" y="359.486" style="fill:#59595B;" width="30.072" height="30.072"/>
<path style="fill:#D0D1D3;" d="M391.327,396.453h-30.072c-3.808,0-6.896-3.088-6.896-6.896v-30.072c0-3.808,3.088-6.896,6.896-6.896
	h30.072c3.808,0,6.896,3.088,6.896,6.896v30.072C398.222,393.366,395.135,396.453,391.327,396.453z M368.15,382.662h16.281v-16.281
	H368.15V382.662z"/>
<g>
</g>
<g>
</g>
<g>
</g>
<g>
</g>
<g>
</g>
<g>
</g>
<g>
</g>
<g>
</g>
<g>
</g>
<g>
</g>
<g>
</g>
<g>
</g>
<g>
</g>
<g>
</g>
<g>
</g>
</svg>
