<?xml version="1.0" encoding="iso-8859-1"?>
<!-- Generator: Adobe Illustrator 19.0.0, SVG Export Plug-In . SVG Version: 6.00 Build 0)  -->
<svg version="1.1" id="Layer_1" xmlns="http://www.w3.org/2000/svg" xmlns:xlink="http://www.w3.org/1999/xlink" x="0px" y="0px"
	 viewBox="0 0 512 512" style="enable-background:new 0 0 512 512;" xml:space="preserve">
<circle style="fill:#324A5E;" cx="256" cy="256" r="256"/>
<path style="fill:#2B3B4E;" d="M281.891,510.704C402.565,498.583,498.522,402.66,510.693,282L405.616,176.923l-121.868,62.947
	L106.78,335.591L281.891,510.704z"/>
<path style="fill:#F9B54C;" d="M401.93,327.713c-171.07,44.761-199.435,42.763-291.861,0c0-47.828,0-95.656,0-143.484
	c92.425-42.763,134.082-42.31,291.861,0C401.93,232.057,401.93,279.885,401.93,327.713z"/>
<path style="fill:#F4A200;" d="M110.07,256.574c0,23.712,0,47.425,0,71.139c92.425,42.763,120.791,44.761,291.861,0
	c0-23.712,0-47.425,0-71.139L110.07,256.574L110.07,256.574z"/>
<g>
	<polygon style="fill:#935635;" points="110.654,239.869 109.484,233.074 243.219,209.984 109.484,186.89 110.654,180.096 
		283.748,209.984 	"/>
	<path style="fill:#935635;" d="M256.619,214.668c1.862,6.323,7.785,10.952,14.817,10.952c7.809,0,14.246-5.708,15.276-13.109
		h111.478v-6.896H286.06c-2.053-6.011-7.818-10.349-14.624-10.349c-6.704,0-12.395,4.21-14.526,10.083l-146.256-25.253l-1.172,6.794
		l133.735,23.093L130.31,229.478l-19.656-3.394l-1.172,6.794l0.565,0.098l-0.565,0.098l1.172,6.794l19.656-3.394l112.909,19.496
		L130.31,275.466l-19.656-3.394l-1.172,6.794l0.565,0.098l-0.565,0.098l1.172,6.794l19.656-3.394l112.909,19.496l-133.735,23.092
		l1.172,6.794l146.254-25.252c2.131,5.872,7.821,10.083,14.526,10.083c6.806,0,12.571-4.337,14.624-10.349h112.13v-6.896H286.711
		c-1.029-7.401-7.466-13.109-15.276-13.109c-7.032,0-12.955,4.629-14.817,10.952l-106.046-18.311L256.75,260.63
		c2.001,6.099,7.816,10.514,14.686,10.514c7.316,0,13.429-5.01,15.019-11.728h111.735v-6.896H286.456
		c-1.589-6.718-7.702-11.729-15.02-11.729c-6.87,0-12.684,4.415-14.686,10.514l-106.177-18.334L256.619,214.668z"/>
</g>
<path style="fill:#804000;" d="M271.434,271.146c7.316,0,13.429-5.01,15.019-11.728h111.735v-2.844H239.725L130.31,275.466
	l-19.656-3.394l-1.172,6.794l0.565,0.098l-0.565,0.098l1.172,6.794l19.656-3.394l112.909,19.496l-133.735,23.092l1.172,6.794
	l146.254-25.252c2.131,5.872,7.821,10.083,14.526,10.083c6.806,0,12.571-4.337,14.624-10.349h112.13v-6.896H286.711
	c-1.029-7.401-7.466-13.109-15.276-13.109c-7.032,0-12.955,4.629-14.817,10.952l-106.046-18.311L256.75,260.63
	C258.751,266.731,264.566,271.146,271.434,271.146z"/>
<g>
	<path style="fill:#F4E3C3;" d="M114.036,338.749h-0.919c-4.396,0-7.959-3.563-7.959-7.959V181.151c0-4.396,3.563-7.959,7.959-7.959
		h0.919c4.396,0,7.959,3.563,7.959,7.959V330.79C121.996,335.186,118.432,338.749,114.036,338.749z"/>
	<path style="fill:#F4E3C3;" d="M398.882,338.749h-0.919c-4.396,0-7.959-3.563-7.959-7.959V181.151c0-4.396,3.563-7.959,7.959-7.959
		h0.919c4.396,0,7.959,3.563,7.959,7.959V330.79C406.842,335.186,403.278,338.749,398.882,338.749z"/>
</g>
<g>
	<path style="fill:#FED8B2;" d="M105.158,256.574v74.216c0,4.396,3.563,7.959,7.959,7.959h0.919c4.396,0,7.959-3.563,7.959-7.959
		v-74.216H105.158z"/>
	<path style="fill:#FED8B2;" d="M390.004,256.574v74.216c0,4.396,3.563,7.959,7.959,7.959h0.919c4.396,0,7.959-3.563,7.959-7.959
		v-74.216H390.004z"/>
</g>
<g>
</g>
<g>
</g>
<g>
</g>
<g>
</g>
<g>
</g>
<g>
</g>
<g>
</g>
<g>
</g>
<g>
</g>
<g>
</g>
<g>
</g>
<g>
</g>
<g>
</g>
<g>
</g>
<g>
</g>
</svg>
